HIERARCHY
ROOT hip
{
  OFFSET 0 0 0
  CHANNELS 6 Xposition Yposition Zposition Zrotation Yrotation Xrotation
  JOINT abdomen
  {
    OFFSET 0 20.6881 -0.73152
    CHANNELS 3 Zrotation Xrotation Yrotation
    JOINT chest
    {
      OFFSET 0 11.7043 -0.48768
      CHANNELS 3 Zrotation Xrotation Yrotation
      JOINT neck
      {
        OFFSET 0 22.1894 -2.19456
        CHANNELS 3 Zrotation Xrotation Yrotation
        JOINT head
        {
          OFFSET -0.24384 7.07133 1.2192
          CHANNELS 3 Zrotation Xrotation Yrotation
          JOINT leftEye
          {
            OFFSET 4.14528 8.04674 8.04672
            CHANNELS 3 Zrotation Xrotation Yrotation
            End Site
            {
              OFFSET 1 0 0
            }
          }
          JOINT rightEye
          {
            OFFSET -3.6576 8.04674 8.04672
            CHANNELS 3 Zrotation Xrotation Yrotation
            End Site
            {
              OFFSET 1 0 0
            }
          }
        }
      }
      JOINT rCollar
      {
        OFFSET -2.68224 19.2634 -4.8768
        CHANNELS 3 Zrotation Xrotation Yrotation
        JOINT rShldr
        {
          OFFSET -8.77824 -1.95073 1.46304
          CHANNELS 3 Zrotation Xrotation Yrotation
          JOINT rForeArm
          {
            OFFSET -28.1742 -1.7115 0.48768
            CHANNELS 3 Zrotation Xrotation Yrotation
            JOINT rHand
            {
              OFFSET -22.5879 0.773209 7.07136
              CHANNELS 3 Zrotation Xrotation Yrotation
              JOINT rThumb1
              {
                OFFSET -1.2192 -0.487915 3.41376
                CHANNELS 3 Zrotation Xrotation Yrotation
                JOINT rThumb2
                {
                  OFFSET -3.37035 -0.52449 3.41376
                  CHANNELS 3 Zrotation Xrotation Yrotation
                  End Site
                  {
                    OFFSET -1.78271 -1.18214 1.43049
                  }
                }
              }
              JOINT rIndex1
              {
                OFFSET -7.75947 0.938293 5.60832
                CHANNELS 3 Zrotation Xrotation Yrotation
                JOINT rIndex2
                {
                  OFFSET -2.54057 -0.884171 1.56538
                  CHANNELS 3 Zrotation Xrotation Yrotation
                  End Site
                  {
                    OFFSET -1.62519 -0.234802 1.16502
                  }
                }
              }
              JOINT rMid1
              {
                OFFSET -8.24714 1.18213 3.41376
                CHANNELS 3 Zrotation Xrotation Yrotation
                JOINT rMid2
                {
                  OFFSET -3.10165 -0.590103 1.0647
                  CHANNELS 3 Zrotation Xrotation Yrotation
                  End Site
                  {
                    OFFSET -2.48547 -0.328903 0.83742
                  }
                }
              }
              JOINT rRing1
              {
                OFFSET -8.82822 0.546677 1.51678
                CHANNELS 3 Zrotation Xrotation Yrotation
                JOINT rRing2
                {
                  OFFSET -2.60934 -0.819778 -0.0198488
                  CHANNELS 3 Zrotation Xrotation Yrotation
                  End Site
                  {
                    OFFSET -2.33842 -0.294052 0.168128
                  }
                }
              }
              JOINT rPinky1
              {
                OFFSET -8.27202 -0.0477905 -0.4584
                CHANNELS 3 Zrotation Xrotation Yrotation
                JOINT rPinky2
                {
                  OFFSET -1.82734 -0.647385 -0.700984
                  CHANNELS 3 Zrotation Xrotation Yrotation
                  End Site
                  {
                    OFFSET -1.69225 -0.51767 -0.607171
                  }
                }
              }
            }
          }
        }
      }
      JOINT lCollar
      {
        OFFSET 2.68224 19.2634 -4.8768
        CHANNELS 3 Zrotation Xrotation Yrotation
        JOINT lShldr
        {
          OFFSET 8.77824 -1.95073 1.46304
          CHANNELS 3 Zrotation Xrotation Yrotation
          JOINT lForeArm
          {
            OFFSET 28.1742 -1.7115 0.48768
            CHANNELS 3 Zrotation Xrotation Yrotation
            JOINT lHand
            {
              OFFSET 22.5879 0.773209 7.07136
              CHANNELS 3 Zrotation Xrotation Yrotation
              JOINT lThumb1
              {
                OFFSET 1.2192 -0.487915 3.41376
                CHANNELS 3 Zrotation Xrotation Yrotation
                JOINT lThumb2
                {
                  OFFSET 3.37035 -0.52449 3.41376
                  CHANNELS 3 Zrotation Xrotation Yrotation
                  End Site
                  {
                    OFFSET 1.78271 -1.18214 1.43049
                  }
                }
              }
              JOINT lIndex1
              {
                OFFSET 7.75947 0.938293 5.60832
                CHANNELS 3 Zrotation Xrotation Yrotation
                JOINT lIndex2
                {
                  OFFSET 2.54057 -0.884171 1.56538
                  CHANNELS 3 Zrotation Xrotation Yrotation
                  End Site
                  {
                    OFFSET 1.62519 -0.234802 1.16502
                  }
                }
              }
              JOINT lMid1
              {
                OFFSET 8.24714 1.18213 3.41376
                CHANNELS 3 Zrotation Xrotation Yrotation
                JOINT lMid2
                {
                  OFFSET 3.10165 -0.590103 1.0647
                  CHANNELS 3 Zrotation Xrotation Yrotation
                  End Site
                  {
                    OFFSET 2.48547 -0.328903 0.83742
                  }
                }
              }
              JOINT lRing1
              {
                OFFSET 8.82822 0.546677 1.51678
                CHANNELS 3 Zrotation Xrotation Yrotation
                JOINT lRing2
                {
                  OFFSET 2.60934 -0.819778 -0.0198488
                  CHANNELS 3 Zrotation Xrotation Yrotation
                  End Site
                  {
                    OFFSET 2.33842 -0.294052 0.168128
                  }
                }
              }
              JOINT lPinky1
              {
                OFFSET 8.27202 -0.0477905 -0.4584
                CHANNELS 3 Zrotation Xrotation Yrotation
                JOINT lPinky2
                {
                  OFFSET 1.82734 -0.647385 -0.700984
                  CHANNELS 3 Zrotation Xrotation Yrotation
                  End Site
                  {
                    OFFSET 1.69225 -0.51767 -0.607171
                  }
                }
              }
            }
          }
        }
      }
    }
  }
  JOINT rButtock
  {
    OFFSET -8.77824 4.35084 1.2192
    CHANNELS 3 Zrotation Xrotation Yrotation
    JOINT rThigh
    {
      OFFSET 0 -1.70687 -2.19456
      CHANNELS 3 Zrotation Xrotation Yrotation
      JOINT rShin
      {
        OFFSET 0 -36.8199 0.73152
        CHANNELS 3 Zrotation Xrotation Yrotation
        JOINT rFoot
        {
          OFFSET 0.73152 -45.1104 -5.12064
          CHANNELS 3 Zrotation Xrotation Yrotation
          End Site
          {
            OFFSET -1.1221 -3.69964 12.103
          }
        }
      }
    }
  }
  JOINT lButtock
  {
    OFFSET 8.77824 4.35084 1.2192
    CHANNELS 3 Zrotation Xrotation Yrotation
    JOINT lThigh
    {
      OFFSET 0 -1.70687 -2.19456
      CHANNELS 3 Zrotation Xrotation Yrotation
      JOINT lShin
      {
        OFFSET 0 -36.8199 0.73152
        CHANNELS 3 Zrotation Xrotation Yrotation
        JOINT lFoot
        {
          OFFSET -0.73152 -45.1104 -5.12064
          CHANNELS 3 Zrotation Xrotation Yrotation
          End Site
          {
            OFFSET 1.1221 -3.69964 12.103
          }
        }
      }
    }
  }
}
MOTION
Frames:	7
Frame Time:	0.00833333
-30.6262 81.5714 23.7322 -13.1897 41.6469 0.3987 -18.1201 5.97907 -20.2189 5.40136 0.945427 -5.93549 -0.31248 9.084 20.542 -17.9212 -9.54814 38.829 -0.0 0.0 0.0 -0.0 0.0 0.0 4.01563e-13 -9.42311e-14 -5.61318e-13 54.6621 -3.86455 43.7801 -27.9445 -40.6973 85.1806 -0.0261066 -4.60742 -0.648944 1.47448e-09 9.60496e-10 3.88792e-09 2.53496e-09 1.64756e-09 6.72368e-09 1.47448e-09 9.60494e-10 3.88792e-09 7.73091 5.47488 0.417314 1.47448e-09 9.6049e-10 3.88793e-09 2.90554 0.965183 0.102902 1.47448e-09 9.60489e-10 3.88793e-09 10.2786 0.731801 0.0259123 1.47447e-09 9.60492e-10 3.88793e-09 2.22167 -0.733487 -0.20892 4.01454e-13 -9.42173e-14 -5.61467e-13 -9.4884 -0.126358 -127.955 15.3097 -8.06131 -28.2283 0.0704757 7.55264 -1.06771 -3.789e-09 1.93225e-09 -2.45529e-10 -6.55232e-09 3.31697e-09 -3.97319e-10 -3.78904e-09 1.93225e-09 -2.4552e-10 -7.73091 5.47488 -0.417314 -3.78903e-09 1.93225e-09 -2.45539e-10 -2.90554 0.965183 -0.102902 -3.78902e-09 1.93224e-09 -2.45534e-10 -10.2786 0.731801 -0.0259123 -3.78901e-09 1.93225e-09 -2.45536e-10 -2.22167 -0.733487 0.20892 -2.03217e-16 0.0 -3.88251e-19 14.4829 -32.5955 20.1313 -0.171389 28.7688 0.565238 1.79091 1.01411 21.9581 2.03217e-16 0.0 3.88251e-19 28.818 -10.6484 23.8945 0.201663 38.8186 -1.12798 0.986002 -0.295516 14.7715
-30.6336 81.6174 23.9171 -13.1006 41.4156 0.5034 -18.2633 5.91562 -20.2938 5.29998 0.800473 -5.94644 -0.418367 9.16393 20.5944 -17.5859 -9.94483 38.899 -0.0 0.0 0.0 -0.0 0.0 0.0 3.74264e-13 -8.53498e-14 -5.41938e-13 53.8056 -4.76678 43.7699 -27.8888 -40.9605 85.6639 -0.0184295 -3.83755 -0.540192 1.44417e-09 8.56831e-10 3.30218e-09 2.48575e-09 1.47026e-09 5.70862e-09 1.44417e-09 8.56831e-10 3.30217e-09 7.73091 5.47488 0.417314 1.44416e-09 8.56826e-10 3.30218e-09 2.90554 0.965183 0.102902 1.44417e-09 8.56826e-10 3.30218e-09 10.2786 0.731801 0.0259123 1.44416e-09 8.56828e-10 3.30219e-09 2.22167 -0.733487 -0.20892 3.74147e-13 -8.53387e-14 -5.42088e-13 -9.83753 -0.507225 -128.451 15.4558 -8.19156 -28.5312 0.0693498 7.49289 -1.05916 -3.69178e-09 1.60483e-09 -2.34886e-10 -6.38443e-09 2.7522e-09 -3.7919e-10 -3.69181e-09 1.60484e-09 -2.34877e-10 -7.73091 5.47488 -0.417314 -3.6918e-09 1.60484e-09 -2.34894e-10 -2.90554 0.965183 -0.102902 -3.69179e-09 1.60483e-09 -2.34892e-10 -10.2786 0.731801 -0.0259123 -3.69178e-09 1.60484e-09 -2.34893e-10 -2.22167 -0.733487 0.20892 -2.03217e-16 0.0 -3.88251e-19 14.5408 -32.5459 20.2739 -0.171455 28.809 0.568845 1.75836 1.1364 22.1014 2.03217e-16 0.0 3.88251e-19 28.8031 -10.516 23.8651 0.202147 38.8153 -1.12549 0.869186 0.127171 14.6473
-30.6299 81.6183 24.0931 -12.9942 41.1809 0.5632 -18.4083 5.84729 -20.3265 5.18213 0.653755 -5.9453 -0.545707 9.3003 20.6323 -17.2222 -10.3831 38.9378 -0.0 0.0 0.0 -0.0 0.0 0.0 3.35386e-13 -1.22131e-13 -4.32577e-13 52.9883 -5.69804 43.6847 -27.8343 -41.2098 86.1197 -0.0122954 -3.09748 -0.435776 1.3557e-09 5.79369e-10 2.11599e-09 2.33832e-09 9.94324e-10 3.6545e-09 1.3557e-09 5.79371e-10 2.11598e-09 7.73091 5.47488 0.417314 1.35569e-09 5.79367e-10 2.11599e-09 2.90554 0.965183 0.102902 1.3557e-09 5.79366e-10 2.11599e-09 10.2786 0.731801 0.0259123 1.35569e-09 5.79368e-10 2.116e-09 2.22167 -0.733487 -0.20892 3.35255e-13 -1.22127e-13 -4.32729e-13 -10.1425 -0.872901 -128.967 15.6065 -8.32729 -28.8447 0.0672231 7.37736 -1.04265 -3.70881e-09 1.92128e-09 -3.99927e-10 -6.41483e-09 3.30153e-09 -6.63664e-10 -3.70882e-09 1.92128e-09 -3.99917e-10 -7.73091 5.47488 -0.417314 -3.70882e-09 1.92128e-09 -3.99931e-10 -2.90554 0.965183 -0.102902 -3.70882e-09 1.92128e-09 -3.99932e-10 -10.2786 0.731801 -0.0259123 -3.70881e-09 1.92128e-09 -3.99934e-10 -2.22167 -0.733487 0.20892 -2.03217e-16 0.0 -3.88251e-19 14.5961 -32.4935 20.4126 -0.171493 28.8638 0.573052 1.71786 1.27708 22.2434 2.03217e-16 0.0 3.88251e-19 28.789 -10.3643 23.8215 0.202109 38.7927 -1.12322 0.766036 0.498521 14.5127
-30.6162 81.6142 24.254 -12.7804 40.9878 0.7295 -18.5499 5.77547 -20.34 5.06808 0.516247 -5.93918 -0.679433 9.44788 20.6635 -16.867 -10.8307 38.9646 -0.0 0.0 0.0 -0.0 0.0 0.0 2.97949e-13 -1.69112e-13 -2.85797e-13 52.1919 -6.64772 43.5674 -27.7803 -41.4451 86.5513 -0.0071772 -2.35393 -0.331003 1.2202e-09 2.90528e-10 9.31468e-10 2.10985e-09 4.99071e-10 1.60372e-09 1.2202e-09 2.90531e-10 9.31453e-10 7.73091 5.47488 0.417314 1.2202e-09 2.90528e-10 9.31461e-10 2.90554 0.965183 0.102902 1.22021e-09 2.90527e-10 9.31464e-10 10.2786 0.731801 0.0259123 1.2202e-09 2.90528e-10 9.31477e-10 2.22167 -0.733487 -0.20892 2.97807e-13 -1.69115e-13 -2.85949e-13 -10.4312 -1.23906 -129.491 15.7482 -8.45586 -29.1415 0.0654472 7.27857 -1.02853 -3.77099e-09 2.42022e-09 -5.81192e-10 -6.52323e-09 4.16621e-09 -9.75663e-10 -3.771e-09 2.42022e-09 -5.8118e-10 -7.73091 5.47488 -0.417314 -3.77099e-09 2.42022e-09 -5.81191e-10 -2.90554 0.965183 -0.102902 -3.77099e-09 2.42022e-09 -5.81196e-10 -10.2786 0.731801 -0.0259123 -3.77098e-09 2.42023e-09 -5.81198e-10 -2.22167 -0.733487 0.20892 -2.03217e-16 0.0 -3.88251e-19 14.651 -32.4401 20.5501 -0.171455 28.9156 0.57712 1.67581 1.41697 22.3739 2.03217e-16 0.0 3.88251e-19 28.7835 -10.2168 23.7827 0.202109 38.773 -1.12117 0.668956 0.850898 14.3687
-30.6056 81.6489 24.4179 -12.537 40.815 0.9583 -18.6829 5.7016 -20.3574 4.97804 0.398931 -5.9352 -0.804428 9.56147 20.6958 -16.557 -11.2549 38.9979 -0.0 0.0 0.0 -0.0 0.0 0.0 2.74976e-13 -1.90831e-13 -1.54158e-13 51.401 -7.60258 43.4603 -27.7263 -41.6658 86.9623 -0.00303803 -1.57363 -0.221216 1.04881e-09 1.52724e-10 3.5071e-10 1.8175e-09 2.63824e-10 5.98696e-10 1.04881e-09 1.52728e-10 3.50694e-10 7.73091 5.47488 0.417314 1.04881e-09 1.52724e-10 3.50701e-10 2.90554 0.965183 0.102902 1.04882e-09 1.52724e-10 3.50705e-10 10.2786 0.731801 0.0259123 1.0488e-09 1.52725e-10 3.5072e-10 2.22167 -0.733487 -0.20892 2.74831e-13 -1.90837e-13 -1.54307e-13 -10.7318 -1.62169 -130.012 15.8679 -8.56499 -29.3941 0.0652476 7.26907 -1.02717 -3.80923e-09 2.64032e-09 -6.19222e-10 -6.58931e-09 4.54746e-09 -1.04011e-09 -3.80923e-09 2.64032e-09 -6.19209e-10 -7.73091 5.47488 -0.417314 -3.80923e-09 2.64032e-09 -6.19219e-10 -2.90554 0.965183 -0.102902 -3.80924e-09 2.64032e-09 -6.19225e-10 -10.2786 0.731801 -0.0259123 -3.80923e-09 2.64032e-09 -6.19229e-10 -2.22167 -0.733487 0.20892 -2.03217e-16 0.0 -3.88251e-19 14.7073 -32.387 20.689 -0.171285 28.9466 0.580305 1.63887 1.53702 22.4822 2.03217e-16 0.0 3.88251e-19 28.7938 -10.0968 23.7675 0.202699 38.7784 -1.11936 0.570617 1.21673 14.2163
-30.589 81.6967 24.5732 -12.2425 40.6219 1.211 -18.8149 5.61806 -20.375 4.91753 0.308277 -5.93232 -0.904787 9.6415 20.7285 -16.3132 -11.6517 39.0332 -0.0 0.0 0.0 -0.0 0.0 0.0 2.9738e-13 -1.68603e-13 -6.38301e-14 50.6142 -8.56963 43.3652 -27.6741 -41.8687 87.3441 -0.000103277 -0.723506 -0.101711 8.19074e-10 3.84411e-10 1.07033e-09 1.42267e-09 6.66269e-10 1.84493e-09 8.19079e-10 3.84413e-10 1.07031e-09 7.73091 5.47488 0.417314 8.19072e-10 3.8441e-10 1.07032e-09 2.90554 0.965183 0.102902 8.19084e-10 3.84409e-10 1.07032e-09 10.2786 0.731801 0.0259123 8.19068e-10 3.8441e-10 1.07034e-09 2.22167 -0.733487 -0.20892 2.97256e-13 -1.68605e-13 -6.39632e-14 -11.0423 -2.01972 -130.534 15.9554 -8.64527 -29.5797 0.067877 7.4199 -1.04871 -4.10124e-09 2.38403e-09 -3.77382e-10 -7.09238e-09 4.10118e-09 -6.18267e-10 -4.10124e-09 2.38404e-09 -3.77368e-10 -7.73091 5.47488 -0.417314 -4.10123e-09 2.38404e-09 -3.7738e-10 -2.90554 0.965183 -0.102902 -4.10124e-09 2.38404e-09 -3.77385e-10 -10.2786 0.731801 -0.0259123 -4.10123e-09 2.38404e-09 -3.77389e-10 -2.22167 -0.733487 0.20892 -2.03217e-16 0.0 -3.88251e-19 14.7649 -32.3348 20.8323 -0.170903 28.948 0.582271 1.60865 1.63197 22.56 2.03217e-16 0.0 3.88251e-19 28.8251 -10.0147 23.7881 0.204212 38.8235 -1.11799 0.471338 1.59687 14.0498
-30.5928 81.7241 24.7267 -12.0766 40.4242 1.391 -18.9457 5.52674 -20.3837 4.87573 0.237247 -5.92772 -0.992459 9.70794 20.7584 -16.1127 -12.0371 39.0635 -0.0 0.0 0.0 -0.0 0.0 0.0 3.49071e-13 -1.24417e-13 1.72694e-14 49.8379 -9.5538 43.2634 -27.6248 -42.0564 87.6958 0.000837674 0.170614 0.0239657 5.33532e-10 8.40586e-10 2.59051e-09 9.30611e-10 1.45637e-09 4.47729e-09 5.33538e-10 8.40585e-10 2.5905e-09 7.73091 5.47488 0.417314 5.33531e-10 8.40583e-10 2.59051e-09 2.90554 0.965183 0.102902 5.33543e-10 8.4058e-10 2.59051e-09 10.2786 0.731801 0.0259123 5.33523e-10 8.40582e-10 2.59052e-09 2.22167 -0.733487 -0.20892 3.48982e-13 -1.24412e-13 1.71607e-14 -11.3514 -2.42649 -131.062 16.0208 -8.70588 -29.7179 0.0726082 7.67514 -1.08521 -4.58515e-09 1.92226e-09 2.79116e-11 -7.92614e-09 3.29709e-09 8.80204e-11 -4.58515e-09 1.92227e-09 2.79271e-11 -7.73091 5.47488 -0.417314 -4.58514e-09 1.92227e-09 2.79125e-11 -2.90554 0.965183 -0.102902 -4.58516e-09 1.92227e-09 2.79105e-11 -10.2786 0.731801 -0.0259123 -4.58514e-09 1.92227e-09 2.79056e-11 -2.22167 -0.733487 0.20892 -2.03217e-16 0.0 -3.88251e-19 14.823 -32.2826 20.9778 -0.170357 28.9307 0.583459 1.582 1.71219 22.6145 2.03217e-16 0.0 3.88251e-19 28.8721 -9.95669 23.8319 0.206287 38.8935 -1.11699 0.374684 1.97671 13.8708
